<svg width="31" height="31" viewBox="0 0 31 31" fill="none" xmlns="http://www.w3.org/2000/svg">
<path fill-rule="evenodd" clip-rule="evenodd" d="M0.5 5.1144C6.43233 4.19659 12.3401 0.0419491 14.4303 0.000336425C16.5901 -0.0426711 22.2294 4.05025 28.5128 5.1144C28.4108 8.63067 27.9789 11.7517 27.1339 14.6451C26.5998 14.7739 26.0608 14.9234 25.5189 15.0915C26.4563 12.2815 26.9489 9.34529 27.1403 6.15681C24.471 5.50449 21.9261 4.44069 19.4454 3.28576C18.6241 2.90335 15.2702 1.21385 14.468 1.17444C13.758 1.2357 11.346 2.44561 10.6582 2.77246C8.32368 3.88217 5.98484 4.95806 3.50141 5.72336C2.9614 5.88981 2.41565 6.04115 1.8651 6.17308C2.10136 10.2426 2.93567 14.2591 4.52171 17.9339L3.54809 19.2241C1.57667 14.9666 0.600294 10.1479 0.5 5.11428V5.1144ZM9.86664 25.9655C14.623 21.8868 23.4851 16.1636 30.5 15.6969C22.0574 18.1892 15.0927 22.5061 10.1763 28.1224C7.73652 26.0955 5.46828 22.9092 4.34901 20.8227L5.29127 19.574C6.44801 21.9935 8.60362 24.6356 9.86676 25.9654L9.86664 25.9655ZM8.63306 21.9778C9.4359 20.8842 9.72505 19.8655 9.72505 17.5374C9.72505 15.8117 9.78453 14.8656 10.8576 13.5743C12.2142 11.9419 14.6498 11.4064 16.6569 12.3359C16.9337 12.4642 17.1905 12.6121 17.4164 12.7758C17.5449 12.8689 17.6183 12.9413 17.7455 13.0449C18.2886 13.4869 18.7399 14.0502 19.0093 14.7022C19.4244 15.7076 19.4492 16.6205 19.4363 17.6322C19.7744 17.4581 20.114 17.2884 20.4549 17.1233L20.4546 16.4777C20.4546 15.7094 20.1962 14.7538 19.9304 14.2199C19.7778 13.9139 19.6064 13.6082 19.4246 13.357C18.4015 11.9441 16.6773 10.8846 14.8172 10.8846C13.7571 10.8846 13.0224 10.9559 12.1292 11.3944C11.8071 11.5526 11.5608 11.6633 11.2675 11.8525C11.0268 12.0077 10.6938 12.267 10.4972 12.4587C7.39243 15.4847 9.55367 17.9977 8.15014 20.7762C8.10059 20.8743 8.04937 20.9685 7.99635 21.0595C8.20005 21.3676 8.41344 21.6745 8.6333 21.9778H8.63306ZM18.869 22.709C18.5839 23.7756 18.2011 24.7901 17.7502 25.6824C18.0792 25.3798 18.3444 25.1194 18.4965 24.9459C18.8578 24.5338 19.2782 24.1553 19.6154 23.7282C19.6418 23.6949 19.6681 23.6617 19.6947 23.6287C19.8937 23.0204 20.0408 22.4557 20.1492 21.9048C19.7173 22.1653 19.2904 22.4332 18.869 22.709ZM15.1201 9.41283C15.1201 9.97971 16.1046 9.87022 17.0176 10.2194C17.482 10.3969 17.4608 10.4727 17.9085 10.4727C18.1922 10.4727 18.2722 10.1709 18.2722 9.94287C18.2722 9.54301 17.6901 9.37865 17.2044 9.21337C16.6508 9.02506 15.12 8.46039 15.12 9.41294L15.1201 9.41283ZM8.57334 8.88302C8.57334 9.30775 8.87195 9.35401 9.11886 9.35401C9.36277 9.35401 10.6192 8.45864 11.7043 8.15573C12.9904 7.79691 12.3683 7.05799 11.968 7.05799C11.6078 7.05799 10.3427 7.56966 10.0474 7.72426C9.62895 7.94313 8.57334 8.41075 8.57334 8.88314V8.88302ZM21.6064 7.88211C22.1149 7.88211 22.3406 7.29988 21.8871 6.96186C21.4024 6.60083 20.8312 6.27374 20.2927 5.97897C20.0538 5.8482 18.6133 5.23284 18.3937 5.23284C17.8762 5.23284 17.6598 5.8575 18.112 6.1539C18.1127 6.15437 19.7961 6.84667 20.4897 7.25943C20.7342 7.40496 21.3438 7.88211 21.6064 7.88211ZM7.31068 19.9536C7.35269 19.8447 7.39255 19.7293 7.43013 19.6062C7.58308 19.1046 7.81694 18.0083 7.05803 18.0083C6.71502 18.0083 6.62155 18.1942 6.56374 18.5022L6.75966 18.9118C6.92279 19.253 7.10818 19.6017 7.3108 19.9536H7.31068ZM22.7582 8.82409C22.7582 9.17013 23.1312 9.42562 23.5634 9.98471C24.2004 10.8088 24.7403 11.7127 25.1182 12.6937C25.2464 12.1308 25.3581 11.5608 25.4544 10.9825L25.4514 10.9771C25.3133 10.7362 25.2518 10.6051 25.0977 10.3786L24.335 9.29438C24.0249 8.9022 23.662 8.3531 23.2433 8.3531C22.95 8.3531 22.7583 8.53931 22.7583 8.82409H22.7582ZM3.31231 8.66612C3.48897 8.77364 3.7263 8.76841 3.9227 8.60603C4.08271 8.4734 4.16278 8.36728 4.29503 8.20141C4.75078 7.62906 5.68443 6.78565 6.51396 6.1639C5.90632 6.39498 5.29139 6.60955 4.66629 6.80227C4.45038 6.86876 4.23351 6.93257 4.01569 6.99348C3.69865 7.30406 3.41536 7.6043 3.24038 7.83352C3.26145 8.11144 3.28514 8.38902 3.31243 8.66612H3.31231ZM6.57296 16.1243C6.57296 16.6987 6.48691 17.0663 7.17915 17.0663C7.40176 17.0663 7.56226 16.7644 7.59194 16.5842C7.72084 15.8032 7.51175 15.6416 8.00425 14.2765C8.61631 12.5805 9.86664 11.2919 11.5032 10.492C12.9664 9.77688 14.0292 10.0412 14.0292 9.35401C14.0292 8.14538 11.0162 9.60915 10.7752 9.72609C9.8141 10.1923 9.00348 10.8842 8.34989 11.6685C7.39039 12.8203 6.57296 14.5516 6.57296 16.1244V16.1243ZM19.0603 11.1201C19.0603 11.5016 19.6623 11.9504 19.8946 12.1939C20.2049 12.519 20.4443 12.9103 20.6783 13.3166C21.3147 14.4212 21.508 15.4885 21.5563 16.6083C21.8959 16.4555 22.236 16.308 22.5761 16.1661V16.1242C22.5761 15.5292 22.3978 14.8648 22.261 14.3697C22.1174 13.8495 21.8723 13.337 21.6274 12.8656C21.3831 12.3958 20.129 10.649 19.6057 10.649C19.3355 10.649 19.0602 10.8874 19.0602 11.12L19.0603 11.1201ZM21.4049 21.1773C21.408 21.2267 21.4134 21.2734 21.4216 21.317C21.4731 21.2391 21.524 21.1611 21.5745 21.083L21.4049 21.1771V21.1773ZM5.4319 16.7271C5.45368 15.9622 5.51388 15.2293 5.67474 14.6045C5.81453 14.0617 5.94414 13.6376 6.1652 13.1382L7.04619 11.5799C7.43324 11.0274 8.08635 10.4185 8.07211 10.1259C8.05858 9.84767 7.59565 9.24254 6.97078 10.035C5.87066 11.4303 5.22078 12.1793 4.70554 14.1932C4.6402 14.4481 4.58957 14.6999 4.54972 14.9474C4.75916 15.6292 4.99374 16.3016 5.25405 16.9629L5.43178 16.7271H5.4319ZM11.7598 3.83022C12.1109 3.77593 12.4998 3.69027 12.8822 3.64807C14.4147 3.47953 15.868 3.52777 17.2523 3.79511C16.1656 3.28553 14.931 2.74247 14.5038 2.72155C14.0205 2.76316 12.6585 3.39793 11.7598 3.8301V3.83022ZM22.6422 6.18087C22.8002 6.2956 22.9572 6.41404 23.1134 6.53644C23.3073 6.68848 23.4201 6.81099 23.5978 6.94896C24.1337 7.36555 24.4883 7.99916 24.9802 7.56769C25.1891 7.38427 25.1605 7.16842 25.0542 6.97639C24.2385 6.74729 23.4353 6.4782 22.6423 6.18099L22.6422 6.18087ZM13.544 7.17551C13.544 7.37985 13.5425 7.62058 13.9195 7.69404C14.4267 7.79307 16.2502 7.52538 18.3538 8.50932C19.2541 8.93033 20.3468 9.62914 21.0472 10.3092L21.7451 11.1031C23.0094 12.7582 23.4772 14.0858 23.6428 15.7406C23.8686 15.6547 24.0944 15.5715 24.3199 15.4913C24.4051 15.2455 24.4865 14.9986 24.5641 14.7506C24.3192 13.4046 23.8037 12.3296 23.0965 11.2035C22.8315 10.7814 22.044 9.83616 21.6524 9.48571C21.0909 8.98275 20.489 8.51874 19.8292 8.1362C18.8715 7.58141 18.1273 7.28384 17.047 7.01161C15.9169 6.72672 15.3066 6.70463 14.0895 6.70463C13.7964 6.70463 13.544 6.8719 13.544 7.17551ZM3.98182 12.8188C4.39329 11.7385 4.98883 10.7165 5.68982 9.85046C7.22068 7.95871 9.14495 6.72125 11.5214 6.03546C13.108 5.57749 14.4735 5.58213 16.0733 5.72255C16.6285 5.77125 16.7568 5.54215 16.7568 5.1151C16.7568 4.47626 14.4801 4.64899 13.9075 4.64364C13.2282 4.63713 12.3243 4.80614 11.6895 4.96213C11.4267 5.02676 11.2039 5.05547 10.9581 5.13497L9.72421 5.58527C8.52188 6.17122 7.57327 6.60095 6.49708 7.5728C6.17322 7.86491 5.99273 7.97301 5.61741 8.36705C4.92732 9.09155 4.64223 9.52872 4.09971 10.3077C3.91504 10.5729 3.77872 10.831 3.63965 11.1038C3.73826 11.6796 3.8522 12.2516 3.98182 12.8188ZM13.6715 21.0753C13.9262 20.0345 14.0291 18.9504 14.0291 17.8905C14.0291 16.6155 13.817 16.0654 14.6957 16.0654C14.9163 16.0654 15.12 16.3525 15.12 16.5953C15.12 17.7455 15.151 18.99 15.0115 20.1906C15.3725 19.9591 15.7383 19.7299 16.1085 19.5043C16.1646 18.565 16.1506 17.5826 16.1506 16.4776C16.1506 16.0897 15.9286 15.7468 15.7372 15.525C15.5421 15.2987 15.1849 15.1178 14.817 15.0598C14.0235 14.9348 13.3704 15.3875 13.0986 15.9862C12.8306 16.5767 13.078 17.8231 12.9895 18.5883C12.8061 20.1751 12.8136 20.7872 12.239 22.0804C12.704 21.7438 13.182 21.4081 13.6715 21.0752V21.0753ZM17.2417 16.3598C17.2417 17.2614 17.2552 18.069 17.2397 18.8328C17.6004 18.6243 17.9642 18.4194 18.3305 18.2191C18.3318 18.1103 18.3328 18.0011 18.3328 17.8905C18.3328 16.2735 18.3762 15.3266 17.3454 14.1397C15.8569 12.4261 12.4666 12.4086 11.1385 15.1421C10.3419 16.7818 11.6452 19.9669 9.33883 22.9103C9.55031 23.1785 9.76479 23.441 9.9795 23.6952C10.2446 23.3874 10.5066 23.0505 10.7556 22.6006C11.8372 20.647 11.8472 19.6799 11.8467 17.4197C11.8463 16.0011 11.9813 15.2094 13.0232 14.441C14.716 13.1926 17.2419 14.5599 17.2419 16.3599L17.2417 16.3598ZM15.6342 25.0728C15.6095 25.1154 15.5837 25.1584 15.5561 25.2022C15.1575 25.8382 14.7655 26.5628 14.2263 27.1489L13.6886 27.7395C13.9699 27.935 14.2664 28.1311 14.5208 28.2783C14.5764 28.2432 14.6349 28.2049 14.6956 28.1641C15.9429 26.7185 16.8317 25.2845 17.4184 23.705C16.8098 24.1435 16.2147 24.5993 15.634 25.0728H15.6342ZM25.3548 19.232C24.5704 20.8287 23.6254 22.3779 22.5016 23.914C22.1301 24.4218 21.7769 24.817 21.4102 25.2816C21.0021 25.7986 20.5602 26.1927 20.1607 26.6483C19.2902 27.6413 15.4631 30.8996 14.5544 30.9984C14.0285 31.0556 11.9415 29.5319 11.5184 29.2114C11.484 29.1854 11.4504 29.1588 11.4163 29.1327C11.7098 28.7977 12.0096 28.4694 12.3152 28.1472C12.4099 28.2211 12.5049 28.2945 12.601 28.3673C12.9971 28.6672 13.857 29.2995 14.4868 29.6637C15.7492 28.8672 18.2656 26.6934 18.9185 25.9486C19.3212 25.4893 19.7898 25.0675 20.1658 24.5912C20.5303 24.1294 20.9216 23.6867 21.2687 23.2121C21.9952 22.2188 22.6411 21.2255 23.2141 20.2256C23.918 19.8762 24.6321 19.5451 25.3548 19.2319V19.232Z" fill="white"/>
</svg>
